<svg xmlns="http://www.w3.org/2000/svg" width="32" height="32" viewBox="0 0 32 32" fill="none">
  <path d="M32 16C32 24.8366 24.8366 32 16 32C7.16344 32 0 24.8366 0 16C0 7.16344 7.16344 0 16 0C24.8366 0 32 7.16344 32 16Z" fill="#2A8E5C"/>
  <path fill-rule="evenodd" clip-rule="evenodd" d="M16 9.91667C15.0645 9.91667 14.2775 10.5595 14.0598 11.4285C13.9704 11.7857 13.6083 12.0027 13.2511 11.9132C12.894 11.8237 12.677 11.4617 12.7665 11.1045C13.1293 9.65644 14.4385 8.58333 16 8.58333C17.8409 8.58333 19.3333 10.0757 19.3333 11.9167L19.3333 13.25C20.4379 13.25 21.3333 14.1454 21.3333 15.25V20.5833C21.3333 21.6879 20.4379 22.5833 19.3333 22.5833H12.6667C11.5621 22.5833 10.6667 21.6879 10.6667 20.5833V15.25C10.6667 14.1454 11.5621 13.25 12.6667 13.25H18V11.9167C18 10.8121 17.1046 9.91667 16 9.91667ZM12.6667 14.5833C12.2985 14.5833 12 14.8818 12 15.25V20.5833C12 20.9515 12.2985 21.25 12.6667 21.25H19.3333C19.7015 21.25 20 20.9515 20 20.5833V15.25C20 14.8818 19.7015 14.5833 19.3333 14.5833H12.6667ZM16 16.5833C16.3682 16.5833 16.6667 16.8818 16.6667 17.25V18.5833C16.6667 18.9515 16.3682 19.25 16 19.25C15.6318 19.25 15.3333 18.9515 15.3333 18.5833V17.25C15.3333 16.8818 15.6318 16.5833 16 16.5833Z" fill="white"/>
</svg>